# xmcd CD database file
#
# Track frame offsets:
#	183
#	25475
#	48258
#	53088
#	59225
#	69008
#	91520
#	103070
#	131063
#	153133
#
# Disc length: 2407 seconds
#
# Revision: 0
# Processed by: cddbd v1.5.2PL0 Copyright (c) Steve Scherf et al.
# Submitted via: CDex 1.74
#
DISCID=7d09650a
DTITLE=Radka Toneff - Winter Poem
DYEAR=1977
DGENRE=Jazz
TTITLE0=Lorelei
TTITLE1=The Wonder Woman
TTITLE2=Winter Poem
TTITLE3=The Butterfly
TTITLE4=Love Comes Quietly
TTITLE5=The Kid
TTITLE6=A Child Is Born
TTITLE7=Mr. Bojangles
TTITLE8=Fire
TTITLE9=Ballad Of The Sad Young Men
EXTD=YEAR: 1977
EXTT0=
EXTT1=
EXTT2=
EXTT3=
EXTT4=
EXTT5=
EXTT6=
EXTT7=
EXTT8=
EXTT9=
PLAYORDER=
